#!OML:ASF X:\für Bonn\!DataBase\2005_08_10_Bjorn_Final\c3d\bjorn.ASF
:FULLY-SPECIFIED
:DEGREES
94
root 9.09931 12.9238 1.37572 -219.501 81.0749 -218.912
lowerback 36.903 -0.0235108 3.50333
upperback 20.8692 4.61789 -0.857557
thorax 4.97062 4.19129 -3.86151
lowerneck -5.14952 -8.68652 0.430285
upperneck 6.56371 -12.1132 6.88354
head 3.48893 -5.72897 1.5954
rclavicle -3.65764e-014 -1.90833e-014
rhumerus 23.5844 -6.09022 -67.7874
rradius 22.1108
rwrist 0.312559
rhand -13.0539 13.5914
rfingers 7.12502
rthumb 13.0412 -15.9809
lclavicle -3.65764e-014 -1.90833e-014
lhumerus 26.7829 -34.6402 61.5371
lradius 41.1303
lwrist -9.4819
lhand -24.3458 -10.0229
lfingers 7.12502
lthumb 2.14335 19.9461
rfemur -58.4553 -18.0572 2.29865
rtibia 117.9
rfoot -25.6429 33.2993
rtoes -17.3117
lfemur -71.0973 13.0689 -25.7921
ltibia 107.56
lfoot -24.0427 -9.57976
ltoes -10.4069
95
root 9.12845 12.7381 1.3523 -220.122 81.0551 -219.134
lowerback 37.3215 -0.15848 3.71053
upperback 20.8924 4.56282 -0.776111
thorax 4.86586 4.19036 -3.88235
lowerneck -5.10967 -8.70891 0.434537
upperneck 6.59846 -12.1354 6.79242
head 3.48643 -5.74239 1.56511
rclavicle 3.81667e-014 4.77083e-015
rhumerus 23.5823 -6.40356 -67.6456
rradius 21.9631
rwrist 0.35761
rhand -13.2476 13.556
rfingers 7.12502
rthumb 12.8546 -16.0282
lclavicle 3.81667e-014 4.77083e-015
lhumerus 27.0078 -34.8041 60.7653
lradius 41.5863
lwrist -9.11743
lhand -24.5659 -10.2609
lfingers 7.12502
lthumb 1.93087 19.7102
rfemur -58.8311 -18.9038 1.50572
rtibia 119.538
rfoot -25.7101 34.2352
rtoes -18.3527
lfemur -71.8374 13.4758 -25.9156
ltibia 109.345
lfoot -24.3397 -9.70762
ltoes -10.749
96
root 9.15778 12.5535 1.32953 -220.863 81.0465 -219.443
lowerback 37.7373 -0.274283 3.86221
upperback 20.938 4.52181 -0.666025
thorax 4.78516 4.19121 -3.84544
lowerneck -5.08769 -8.72492 0.439115
upperneck 6.63479 -12.1492 6.69035
head 3.48661 -5.75161 1.53088
rclavicle 2.22639e-014 7.15625e-015
rhumerus 23.6152 -6.68463 -67.4932
rradius 21.778
rwrist 0.466527
rhand -13.5141 13.5798
rfingers 7.12502
rthumb 12.5976 -16.0203
lclavicle 2.22639e-014 7.15625e-015
lhumerus 27.1526 -34.9074 60.0882
lradius 42.0357
lwrist -8.79523
lhand -24.828 -10.444
lfingers 7.12502
lthumb 1.67769 19.5292
rfemur -59.1518 -19.8119 0.633514
rtibia 121.137
rfoot -25.6471 35.3146
rtoes -19.0647
lfemur -72.5216 13.9216 -26.0245
ltibia 111.099
lfoot -24.6503 -9.89946
ltoes -10.9901
97
root 9.18607 12.3696 1.30653 -221.449 80.9987 -219.654
lowerback 38.0992 -0.413228 4.07715
upperback 20.9707 4.46764 -0.597647
thorax 4.71402 4.19371 -3.87954
lowerneck -5.11158 -8.7438 0.521702
upperneck 6.66646 -12.1763 6.61933
head 3.49113 -5.76347 1.4912
rclavicle -1.90833e-014 -4.13472e-014
rhumerus 23.6615 -7.14557 -67.4839
rradius 21.5801
rwrist 0.704598
rhand -13.7891 13.5924
rfingers 7.12502
rthumb 12.3325 -16.0238
lclavicle -1.90833e-014 -4.13472e-014
lhumerus 27.2883 -35.0754 59.3735
lradius 42.5266
lwrist -8.41698
lhand -25.0835 -10.492
lfingers 7.12502
lthumb 1.43094 19.4829
rfemur -59.4995 -20.9028 -0.308055
rtibia 122.707
rfoot -25.5474 36.4915
rtoes -19.7637
lfemur -73.2978 14.3414 -26.1851
ltibia 112.834
lfoot -24.9391 -9.95993
ltoes -11.782
98
root 9.21507 12.1887 1.28458 -222.072 81.0058 -219.875
lowerback 38.453 -0.537432 4.24683
upperback 21.0347 4.42457 -0.496538
thorax 4.67845 4.19762 -3.8555
lowerneck -5.22321 -8.73747 0.576188
upperneck 6.76207 -12.1708 6.49712
head 3.53137 -5.75777 1.43612
rclavicle -3.97569e-014 1.43125e-014
rhumerus 23.7628 -7.50849 -67.42
rradius 21.3866
rwrist 0.966432
rhand -14.0624 13.6869
rfingers 7.12502
rthumb 12.0689 -15.9451
lclavicle -3.97569e-014 1.43125e-014
lhumerus 27.3134 -35.0645 58.8426
lradius 43.0046
lwrist -8.14575
lhand -25.2545 -10.629
lfingers 7.12502
lthumb 1.26579 19.347
rfemur -59.7736 -22.0077 -1.25632
rtibia 124.212
rfoot -25.4469 37.7146
rtoes -20.3317
lfemur -74.0243 14.8513 -26.2858
ltibia 114.531
lfoot -25.2047 -10.0976
ltoes -12.2994
99
root 9.24354 12.0088 1.26352 -222.762 81.0049 -220.199
lowerback 38.7534 -0.648729 4.40646
upperback 21.1063 4.39186 -0.406949
thorax 4.67023 4.20706 -3.83823
lowerneck -5.34609 -8.7365 0.669059
upperneck 6.83569 -12.176 6.38911
head 3.56486 -5.75656 1.37865
rclavicle -2.8625e-014 -1.59028e-014
rhumerus 23.8619 -7.85666 -67.3325
rradius 21.193
rwrist 1.22821
rhand -14.323 13.8553
rfingers 7.12502
rthumb 11.8176 -15.7913
lclavicle -2.8625e-014 -1.59028e-014
lhumerus 27.275 -35.0157 58.3993
lradius 43.5105
lwrist -7.89072
lhand -25.3249 -10.7924
lfingers 7.12502
lthumb 1.19777 19.1839
rfemur -60.0722 -23.2652 -2.27058
rtibia 125.691
rfoot -25.3155 38.9996
rtoes -20.8391
lfemur -74.7725 15.36 -26.3981
ltibia 116.191
lfoot -25.4115 -10.3137
ltoes -12.6697
